<svg xmlns:dc="http://purl.org/dc/elements/1.1/" xmlns:cc="http://creativecommons.org/ns#" xmlns:rdf="http://www.w3.org/1999/02/22-rdf-syntax-ns#" xmlns:svg="http://www.w3.org/2000/svg" xmlns="http://www.w3.org/2000/svg" xmlns:sodipodi="http://sodipodi.sourceforge.net/DTD/sodipodi-0.dtd" xmlns:inkscape="http://www.inkscape.org/namespaces/inkscape" viewBox="0 0 12.7 12.7" version="1.1" x="0px" y="0px"><g transform="translate(0,-284.29999)"><path style="" d="m 6.4244486,285.48837 a 2.3369987,2.3369987 0 0 0 -2.1674051,3.37553 l 2.0928888,4.21312 2.0930247,-4.21312 a 2.3369987,2.3369987 0 0 0 -2.0185084,-3.37553 z m -0.1017256,1.402 a 0.93422762,0.93422762 0 0 1 0.9614684,0.93385 0.93422762,0.93422762 0 0 1 -1.8683816,0 0.93422762,0.93422762 0 0 1 0.9069132,-0.93385 z"  stroke="none"/><path style="" d="M 2.3736214,291.78207 0.52916737,295.8128 H 12.170834 l -1.844455,-4.03073 H 7.8812808 l -0.424676,0.85482 H 9.777555 l 0.463916,1.01411 -2.8301227,-0.5104 -2.8347721,1.16888 -1.9085802,-1.11652 0.2544502,-0.55607 h 2.320813 l -0.4245388,-0.85482 z m 5.066986,1.63267 2.9349936,0.52927 0.464053,1.01411 H 1.8603463 l 0.697037,-1.52342 1.9988202,1.16943 z" stroke="none"/></g></svg>