<svg xmlns="http://www.w3.org/2000/svg" xmlns:xlink="http://www.w3.org/1999/xlink" version="1.1" x="0px" y="0px" viewBox="0 0 100 100" style="enable-background:new 0 0 100 100;" xml:space="preserve"><g><path d="M85.4,14.6C75.6,4.9,62.8,0,50,0C37.2,0,24.4,4.9,14.6,14.6c-19.5,19.5-19.5,51.2,0,70.7C24.4,95.1,37.2,100,50,100   c12.8,0,25.6-4.9,35.4-14.6C104.9,65.8,104.9,34.2,85.4,14.6z M79.2,79.2C71.4,86.9,61,91.2,50,91.2c-11,0-21.4-4.3-29.2-12.1   c-16.1-16.1-16.1-42.2,0-58.3C28.6,13,39,8.8,50,8.8c11,0,21.4,4.3,29.2,12.1C95.2,36.9,95.2,63.1,79.2,79.2z"/><path d="M68.3,56.8c-1.9-1.9-4.4-1.9-6.3,0c-1.5,1.5-3,2.9-4.4,4.4c-0.1,0.1-0.2,0.2-0.3,0.2l-1,1c-0.3,0.2-0.6,0.2-0.9,0   c-0.9-0.5-2-0.9-2.9-1.5c-4.3-2.7-7.9-6.1-11-10c-1.6-1.9-3-4-4-6.3c-0.2-0.4-0.2-0.7,0.1-1l1-1c0.1-0.1,0.1-0.1,0.2-0.2   c0.4-0.4,0.9-0.9,1.3-1.3c1-1,2-2,3-3.1c2-2,2-4.4,0-6.5c-1.1-1.2-2.3-2.3-3.5-3.5c-1.2-1.2-2.4-2.4-3.6-3.6   c-1.9-1.9-4.4-1.9-6.3,0c-1.5,1.5-2.9,3-4.4,4.4c-1.4,1.3-2.1,2.9-2.3,4.9c-0.2,3.1,0.5,6,1.6,8.8c2.2,5.9,5.5,11.1,9.5,15.9   c5.4,6.5,11.9,11.6,19.5,15.3c3.4,1.7,7,2.9,10.8,3.1c2.6,0.1,5-0.5,6.8-2.6c1.3-1.4,2.7-2.7,4-4.1c2-2,2-4.4,0-6.4   C73.1,61.5,70.7,59.1,68.3,56.8z"/></g></svg>